<mxfile host="app.diagrams.net" agent="Mozilla/5.0 (Windows NT 10.0; Win64; x64) AppleWebKit/537.36 (KHTML, like Gecko) Chrome/131.0.0.0 Safari/537.36 OPR/116.0.0.0" version="26.0.11">
  <diagram name="PÃ¡gina-1" id="xQnovFiWDbvzSh2uflHf">
    <mxGraphModel dx="960" dy="519" grid="1" gridSize="10" guides="1" tooltips="1" connect="1" arrows="1" fold="1" page="1" pageScale="1" pageWidth="827" pageHeight="1169" math="0" shadow="0">
      <root>
        <mxCell id="0" />
        <mxCell id="1" parent="0" />
        <mxCell id="mar3C-3rAJ4-wgC8G30U-18" value="AlunoID" style="ellipse;whiteSpace=wrap;html=1;fillColor=#f8cecc;strokeColor=#b85450;" vertex="1" parent="1">
          <mxGeometry x="260" y="200" width="70" height="60" as="geometry" />
        </mxCell>
        <mxCell id="mar3C-3rAJ4-wgC8G30U-22" value="Curso" style="rounded=0;whiteSpace=wrap;html=1;" vertex="1" parent="1">
          <mxGeometry x="530" y="180" width="90" height="40" as="geometry" />
        </mxCell>
        <mxCell id="mar3C-3rAJ4-wgC8G30U-23" value="Aluno" style="rounded=0;whiteSpace=wrap;html=1;" vertex="1" parent="1">
          <mxGeometry x="120" y="160" width="90" height="40" as="geometry" />
        </mxCell>
        <mxCell id="mar3C-3rAJ4-wgC8G30U-24" value="Disciplina" style="rounded=0;whiteSpace=wrap;html=1;" vertex="1" parent="1">
          <mxGeometry x="250" y="420" width="100" height="40" as="geometry" />
        </mxCell>
        <mxCell id="mar3C-3rAJ4-wgC8G30U-25" value="Nome_Completo" style="ellipse;whiteSpace=wrap;html=1;" vertex="1" parent="1">
          <mxGeometry x="110" y="25" width="110" height="70" as="geometry" />
        </mxCell>
        <mxCell id="mar3C-3rAJ4-wgC8G30U-26" value="Data_Nasc" style="ellipse;whiteSpace=wrap;html=1;" vertex="1" parent="1">
          <mxGeometry x="220" y="80" width="70" height="60" as="geometry" />
        </mxCell>
        <mxCell id="mar3C-3rAJ4-wgC8G30U-27" value="Morada" style="ellipse;whiteSpace=wrap;html=1;" vertex="1" parent="1">
          <mxGeometry x="40" y="220" width="70" height="60" as="geometry" />
        </mxCell>
        <mxCell id="mar3C-3rAJ4-wgC8G30U-28" value="Email" style="ellipse;whiteSpace=wrap;html=1;" vertex="1" parent="1">
          <mxGeometry x="130" y="230" width="70" height="60" as="geometry" />
        </mxCell>
        <mxCell id="mar3C-3rAJ4-wgC8G30U-29" value="Telemovel" style="ellipse;whiteSpace=wrap;html=1;" vertex="1" parent="1">
          <mxGeometry x="30" y="80" width="70" height="60" as="geometry" />
        </mxCell>
        <mxCell id="mar3C-3rAJ4-wgC8G30U-30" value="" style="endArrow=none;html=1;rounded=0;entryX=0.5;entryY=1;entryDx=0;entryDy=0;exitX=0.5;exitY=0;exitDx=0;exitDy=0;" edge="1" parent="1" source="mar3C-3rAJ4-wgC8G30U-23" target="mar3C-3rAJ4-wgC8G30U-25">
          <mxGeometry width="50" height="50" relative="1" as="geometry">
            <mxPoint x="110" y="170" as="sourcePoint" />
            <mxPoint x="160" y="120" as="targetPoint" />
          </mxGeometry>
        </mxCell>
        <mxCell id="mar3C-3rAJ4-wgC8G30U-31" value="" style="endArrow=none;html=1;rounded=0;entryX=0.276;entryY=1.017;entryDx=0;entryDy=0;exitX=1;exitY=0;exitDx=0;exitDy=0;entryPerimeter=0;" edge="1" parent="1" source="mar3C-3rAJ4-wgC8G30U-23" target="mar3C-3rAJ4-wgC8G30U-26">
          <mxGeometry width="50" height="50" relative="1" as="geometry">
            <mxPoint x="175" y="170" as="sourcePoint" />
            <mxPoint x="175" y="105" as="targetPoint" />
          </mxGeometry>
        </mxCell>
        <mxCell id="mar3C-3rAJ4-wgC8G30U-32" value="" style="endArrow=none;html=1;rounded=0;entryX=0;entryY=0.5;entryDx=0;entryDy=0;exitX=1;exitY=1;exitDx=0;exitDy=0;" edge="1" parent="1" source="mar3C-3rAJ4-wgC8G30U-23" target="mar3C-3rAJ4-wgC8G30U-18">
          <mxGeometry width="50" height="50" relative="1" as="geometry">
            <mxPoint x="109.31" y="205" as="sourcePoint" />
            <mxPoint x="109.31" y="140" as="targetPoint" />
          </mxGeometry>
        </mxCell>
        <mxCell id="mar3C-3rAJ4-wgC8G30U-33" value="" style="endArrow=none;html=1;rounded=0;entryX=0.571;entryY=0;entryDx=0;entryDy=0;exitX=0;exitY=1;exitDx=0;exitDy=0;entryPerimeter=0;" edge="1" parent="1" source="mar3C-3rAJ4-wgC8G30U-23" target="mar3C-3rAJ4-wgC8G30U-27">
          <mxGeometry width="50" height="50" relative="1" as="geometry">
            <mxPoint x="195" y="190" as="sourcePoint" />
            <mxPoint x="195" y="125" as="targetPoint" />
          </mxGeometry>
        </mxCell>
        <mxCell id="mar3C-3rAJ4-wgC8G30U-34" value="" style="endArrow=none;html=1;rounded=0;entryX=0.5;entryY=1;entryDx=0;entryDy=0;exitX=0.5;exitY=0;exitDx=0;exitDy=0;" edge="1" parent="1" source="mar3C-3rAJ4-wgC8G30U-28" target="mar3C-3rAJ4-wgC8G30U-23">
          <mxGeometry width="50" height="50" relative="1" as="geometry">
            <mxPoint x="205" y="200" as="sourcePoint" />
            <mxPoint x="205" y="135" as="targetPoint" />
          </mxGeometry>
        </mxCell>
        <mxCell id="mar3C-3rAJ4-wgC8G30U-35" value="" style="endArrow=none;html=1;rounded=0;entryX=0;entryY=0;entryDx=0;entryDy=0;exitX=0.404;exitY=-0.018;exitDx=0;exitDy=0;exitPerimeter=0;" edge="1" parent="1" source="mar3C-3rAJ4-wgC8G30U-29" target="mar3C-3rAJ4-wgC8G30U-23">
          <mxGeometry width="50" height="50" relative="1" as="geometry">
            <mxPoint x="215" y="210" as="sourcePoint" />
            <mxPoint x="215" y="145" as="targetPoint" />
          </mxGeometry>
        </mxCell>
        <mxCell id="mar3C-3rAJ4-wgC8G30U-36" value="Nome" style="ellipse;whiteSpace=wrap;html=1;" vertex="1" parent="1">
          <mxGeometry x="480" y="70" width="70" height="60" as="geometry" />
        </mxCell>
        <mxCell id="mar3C-3rAJ4-wgC8G30U-37" value="Departamento" style="ellipse;whiteSpace=wrap;html=1;" vertex="1" parent="1">
          <mxGeometry x="414" y="170" width="86" height="60" as="geometry" />
        </mxCell>
        <mxCell id="mar3C-3rAJ4-wgC8G30U-38" value="Diretor" style="ellipse;whiteSpace=wrap;html=1;" vertex="1" parent="1">
          <mxGeometry x="600" y="80" width="70" height="60" as="geometry" />
        </mxCell>
        <mxCell id="mar3C-3rAJ4-wgC8G30U-39" value="CursoID" style="ellipse;whiteSpace=wrap;html=1;fillColor=#f8cecc;strokeColor=#b85450;" vertex="1" parent="1">
          <mxGeometry x="510" y="260" width="70" height="60" as="geometry" />
        </mxCell>
        <mxCell id="mar3C-3rAJ4-wgC8G30U-40" value="" style="endArrow=none;html=1;rounded=0;entryX=0.5;entryY=0;entryDx=0;entryDy=0;exitX=0.5;exitY=1;exitDx=0;exitDy=0;" edge="1" parent="1" source="mar3C-3rAJ4-wgC8G30U-22" target="mar3C-3rAJ4-wgC8G30U-39">
          <mxGeometry width="50" height="50" relative="1" as="geometry">
            <mxPoint x="220" y="170" as="sourcePoint" />
            <mxPoint x="249" y="151" as="targetPoint" />
          </mxGeometry>
        </mxCell>
        <mxCell id="mar3C-3rAJ4-wgC8G30U-41" value="" style="endArrow=none;html=1;rounded=0;entryX=0;entryY=0.5;entryDx=0;entryDy=0;exitX=1;exitY=0.5;exitDx=0;exitDy=0;" edge="1" parent="1" source="mar3C-3rAJ4-wgC8G30U-37" target="mar3C-3rAJ4-wgC8G30U-22">
          <mxGeometry width="50" height="50" relative="1" as="geometry">
            <mxPoint x="585" y="230" as="sourcePoint" />
            <mxPoint x="575" y="260" as="targetPoint" />
          </mxGeometry>
        </mxCell>
        <mxCell id="mar3C-3rAJ4-wgC8G30U-42" value="" style="endArrow=none;html=1;rounded=0;entryX=1;entryY=0;entryDx=0;entryDy=0;exitX=0.5;exitY=1;exitDx=0;exitDy=0;" edge="1" parent="1" source="mar3C-3rAJ4-wgC8G30U-38" target="mar3C-3rAJ4-wgC8G30U-22">
          <mxGeometry width="50" height="50" relative="1" as="geometry">
            <mxPoint x="595" y="240" as="sourcePoint" />
            <mxPoint x="585" y="270" as="targetPoint" />
          </mxGeometry>
        </mxCell>
        <mxCell id="mar3C-3rAJ4-wgC8G30U-43" value="" style="endArrow=none;html=1;rounded=0;entryX=0.356;entryY=-0.009;entryDx=0;entryDy=0;exitX=0.69;exitY=0.988;exitDx=0;exitDy=0;exitPerimeter=0;entryPerimeter=0;" edge="1" parent="1" source="mar3C-3rAJ4-wgC8G30U-36" target="mar3C-3rAJ4-wgC8G30U-22">
          <mxGeometry width="50" height="50" relative="1" as="geometry">
            <mxPoint x="605" y="250" as="sourcePoint" />
            <mxPoint x="595" y="280" as="targetPoint" />
          </mxGeometry>
        </mxCell>
        <mxCell id="mar3C-3rAJ4-wgC8G30U-44" value="Nome" style="ellipse;whiteSpace=wrap;html=1;" vertex="1" parent="1">
          <mxGeometry x="150" y="360" width="70" height="60" as="geometry" />
        </mxCell>
        <mxCell id="mar3C-3rAJ4-wgC8G30U-45" value="Creditos" style="ellipse;whiteSpace=wrap;html=1;" vertex="1" parent="1">
          <mxGeometry x="150" y="480" width="70" height="60" as="geometry" />
        </mxCell>
        <mxCell id="mar3C-3rAJ4-wgC8G30U-46" value="Idioma" style="ellipse;whiteSpace=wrap;html=1;" vertex="1" parent="1">
          <mxGeometry x="280" y="500" width="70" height="60" as="geometry" />
        </mxCell>
        <mxCell id="mar3C-3rAJ4-wgC8G30U-47" value="" style="endArrow=none;html=1;rounded=0;entryX=1;entryY=1;entryDx=0;entryDy=0;exitX=0;exitY=0;exitDx=0;exitDy=0;" edge="1" parent="1" source="mar3C-3rAJ4-wgC8G30U-24" target="mar3C-3rAJ4-wgC8G30U-44">
          <mxGeometry width="50" height="50" relative="1" as="geometry">
            <mxPoint x="515" y="240" as="sourcePoint" />
            <mxPoint x="505" y="270" as="targetPoint" />
          </mxGeometry>
        </mxCell>
        <mxCell id="mar3C-3rAJ4-wgC8G30U-48" value="" style="endArrow=none;html=1;rounded=0;entryX=1;entryY=0;entryDx=0;entryDy=0;exitX=0;exitY=1;exitDx=0;exitDy=0;" edge="1" parent="1" source="mar3C-3rAJ4-wgC8G30U-24" target="mar3C-3rAJ4-wgC8G30U-45">
          <mxGeometry width="50" height="50" relative="1" as="geometry">
            <mxPoint x="260" y="430" as="sourcePoint" />
            <mxPoint x="220" y="421" as="targetPoint" />
          </mxGeometry>
        </mxCell>
        <mxCell id="mar3C-3rAJ4-wgC8G30U-49" value="" style="endArrow=none;html=1;rounded=0;entryX=0.5;entryY=1;entryDx=0;entryDy=0;exitX=0.438;exitY=0.022;exitDx=0;exitDy=0;exitPerimeter=0;" edge="1" parent="1" source="mar3C-3rAJ4-wgC8G30U-46" target="mar3C-3rAJ4-wgC8G30U-24">
          <mxGeometry width="50" height="50" relative="1" as="geometry">
            <mxPoint x="270" y="440" as="sourcePoint" />
            <mxPoint x="230" y="431" as="targetPoint" />
          </mxGeometry>
        </mxCell>
        <mxCell id="mar3C-3rAJ4-wgC8G30U-50" value="DisciplinaID" style="ellipse;whiteSpace=wrap;html=1;fillColor=#f8cecc;strokeColor=#b85450;" vertex="1" parent="1">
          <mxGeometry x="330" y="330" width="88" height="60" as="geometry" />
        </mxCell>
        <mxCell id="mar3C-3rAJ4-wgC8G30U-51" value="" style="endArrow=none;html=1;rounded=0;entryX=0.91;entryY=-0.001;entryDx=0;entryDy=0;exitX=0.259;exitY=0.925;exitDx=0;exitDy=0;exitPerimeter=0;entryPerimeter=0;" edge="1" parent="1" source="mar3C-3rAJ4-wgC8G30U-50" target="mar3C-3rAJ4-wgC8G30U-24">
          <mxGeometry width="50" height="50" relative="1" as="geometry">
            <mxPoint x="260" y="470" as="sourcePoint" />
            <mxPoint x="220" y="499" as="targetPoint" />
          </mxGeometry>
        </mxCell>
      </root>
    </mxGraphModel>
  </diagram>
</mxfile>
